<svg id="Layer_1" data-name="Layer 1" xmlns="http://www.w3.org/2000/svg" viewBox="0 0 227.22 77.23"><defs><style>.cls-1{fill:#231f20;}.cls-2{stroke:#231f20;stroke-miterlimit:10;stroke-width:0.44px;}</style></defs><path d="M47.43,42.05a33.61,33.61,0,1,1-33.6,33.61,33.61,33.61,0,0,1,33.6-33.61m0-4.88A38.49,38.49,0,1,0,85.92,75.66,38.53,38.53,0,0,0,47.43,37.17Z" transform="translate(-8.95 -36.9)"/><polygon class="cls-1" points="40.64 17.04 40.64 13.11 33.49 13.11 33.49 13.16 33.38 13.11 16.14 50.23 19.7 51.89 25.88 38.6 40.55 38.6 40.55 34.67 27.7 34.67 35.88 17.04 40.64 17.04"/><path class="cls-1" d="M53.52,62.84a13.86,13.86,0,0,0-3.93,0v4.48a8.89,8.89,0,0,1,3.93,0,8.85,8.85,0,0,1,0,17.26,8.89,8.89,0,0,1-3.93,0V101.3h3.93V89.05a13.25,13.25,0,0,0,0-26.21Z" transform="translate(-8.95 -36.9)"/><path class="cls-2" d="M103.1,76.91h-2.95l13.72-39.79H114l1.42,4.07Zm22.13-12.36H109.1l.94-2.77h14.18l-8.47-24.66h2.94l13.72,39.79h-2.95Z" transform="translate(-8.95 -36.9)"/><path class="cls-2" d="M143.88,76.91h-2.82V37.12h11.88v2.71h-9.06ZM163,45.83c0-3.7-2.41-6-6.12-6h-2.18V37.12h2.65A8.53,8.53,0,0,1,165.77,46v4.24a8.22,8.22,0,0,1-8.47,8.47H145.59V56h11.24c3.71,0,6.12-2.3,6.12-6Z" transform="translate(-8.95 -36.9)"/><path class="cls-2" d="M173.54,76.91V37.12H175l1.36,2.71V74.14h20v2.77Zm4.65-37.08-1.35-2.71h19.07v2.71Zm-.12,18.54V55.72h15.07v2.65Z" transform="translate(-8.95 -36.9)"/><path class="cls-2" d="M204.91,37.12,215.68,53l-1.82,2.59-12.6-18.48ZM205,76.91h-3.65l27.19-39.79h3.65ZM217.8,61.14l1.76-2.53,12.54,18.3h-3.65Z" transform="translate(-8.95 -36.9)"/><polygon points="162.75 63.59 169.03 63.59 165.9 55.73 162.75 63.59"/><path d="M141.73,95.82a2.74,2.74,0,0,0,0-2.53,2.47,2.47,0,0,0-.82-.82,3.73,3.73,0,0,0-1.19-.44,8.41,8.41,0,0,0-1.45-.13h-2.86v5.35h2.7a7.54,7.54,0,0,0,1.54-.14,3.89,3.89,0,0,0,1.24-.46A2.39,2.39,0,0,0,141.73,95.82Z" transform="translate(-8.95 -36.9)"/><path d="M96.68,81.89V114H236.17V81.89Zm32.94,14.84a4,4,0,0,1-1.28,1.47,5.62,5.62,0,0,1-1.94.84,10.4,10.4,0,0,1-2.43.27h-2.65v7.37H119V89.91h5.11a9.9,9.9,0,0,1,2.46.28,5.33,5.33,0,0,1,1.9.84,3.93,3.93,0,0,1,1.21,1.44,4.84,4.84,0,0,1,.42,2.11A4.61,4.61,0,0,1,129.62,96.73Zm12.56,10-4.26-7.46h-2.51v7.46h-2.35V89.91h5.38a10.74,10.74,0,0,1,2.3.25,5.62,5.62,0,0,1,1.9.8,3.78,3.78,0,0,1,1.29,1.43,4.48,4.48,0,0,1,.48,2.16,4,4,0,0,1-1.14,3A5.32,5.32,0,0,1,140.33,99l4.69,7.7Zm7.77,0H147.6V89.91H150Zm8.52,0-6.53-16.77h2.6l5,13.74h.07l5-13.74h2.53l-6.58,16.77Zm22.07,0-1.71-4.12h-8l-1.69,4.12h-2.6l7.27-16.77H176l7.2,16.77Zm16.17-.42a8.06,8.06,0,0,1-3.81.84,9.29,9.29,0,0,1-3.54-.65,8.12,8.12,0,0,1-2.8-1.82,8.29,8.29,0,0,1-1.83-2.8,9.14,9.14,0,0,1-.67-3.56,9.3,9.3,0,0,1,.68-3.59,8.12,8.12,0,0,1,1.87-2.77,8.51,8.51,0,0,1,2.83-1.78,9.57,9.57,0,0,1,3.55-.64,9.36,9.36,0,0,1,1.73.16,8.79,8.79,0,0,1,1.68.5,6.78,6.78,0,0,1,1.47.82A5.22,5.22,0,0,1,199,92.09l-1.84,1.42a4.59,4.59,0,0,0-1.74-1.41,5.41,5.41,0,0,0-2.43-.55,6.23,6.23,0,0,0-2.64.53,6,6,0,0,0-2,1.46,6.59,6.59,0,0,0-1.28,2.14,7.42,7.42,0,0,0-.45,2.59,7.88,7.88,0,0,0,.44,2.65,6.47,6.47,0,0,0,1.25,2.15,6,6,0,0,0,2,1.43,6.35,6.35,0,0,0,2.62.52,5.75,5.75,0,0,0,2.58-.57,5,5,0,0,0,1.92-1.66l1.87,1.28A7.65,7.65,0,0,1,196.71,106.26Zm11.22-6.83v7.25h-2.37V99.43l-6.27-9.52h2.89l4.64,7.58,4.66-7.58h2.73Z" transform="translate(-8.95 -36.9)"/><path d="M126.61,92.48a3.52,3.52,0,0,0-1.22-.45,9.12,9.12,0,0,0-1.54-.13h-2.53v5.42h2.49a7.68,7.68,0,0,0,1.57-.15,3.86,3.86,0,0,0,1.24-.47,2.32,2.32,0,0,0,.81-.84,2.66,2.66,0,0,0,.28-1.28,2.27,2.27,0,0,0-1.1-2.1Z" transform="translate(-8.95 -36.9)"/></svg>